/* XPM */
static char * bullet_xpm[] = {
"7 7 2 1",
" 	c None",
".	c #808791",
"       ",
"       ",
"  ...  ",
"  ...  ",
"  ...  ",
"       ",
"       "};
